# Blender 4.4.1
# www.blender.org
mtllib fish.mtl
o Cylinder
v 5.000000 -0.000000 0.735381
v 5.000000 -0.714687 -0.396042
v 5.000000 0.000000 -0.716479
v 2.501928 -0.866025 0.462197
v 1.668595 -0.000000 1.320045
v 0.001928 -0.000000 1.466499
v -1.664739 -0.000000 1.252331
v -3.331405 -0.000000 0.771758
v -3.331405 -0.585622 0.354446
v -1.664738 -0.866025 0.500000
v 0.001928 -0.866025 0.632310
v 1.668595 -0.866025 0.547254
v 3.335262 -0.866025 0.377141
v -3.331405 -0.604979 -0.500000
v -1.664738 -0.866025 -0.500000
v 0.001928 -0.866025 -0.566155
v 1.668595 -0.866025 -0.575606
v 3.335262 -0.721771 -0.402014
v -3.331405 0.000000 -1.000000
v -1.664738 0.000000 -1.453634
v 0.001928 0.000000 -1.548141
v 1.751749 0.000000 -1.311873
v 3.335262 0.000000 -1.122859
v 7.117571 -0.003490 0.101571
v -5.000000 -0.002156 0.014706
v 3.335262 -0.964206 0.070715
v 1.668595 -1.069857 0.002337
v 0.001928 -1.026554 0.050702
v -1.664738 -1.069629 0.014706
v -3.331405 -0.824151 0.014706
v 5.000000 -0.506201 0.310986
v 5.000000 -0.682504 -0.032130
v 7.770956 0.001256 2.190176
v 7.761507 -0.003500 -1.987034
v 7.017789 -0.613503 0.072306
v 5.000000 0.610496 -0.396042
v -3.331405 0.516701 0.354446
v -1.664738 0.826434 0.500000
v 0.001928 0.826434 0.632310
v 1.668595 0.826434 0.547254
v 3.335262 0.712908 0.445880
v -3.331405 0.519597 -0.500000
v -1.664738 0.826435 -0.500000
v 0.001928 0.826435 -0.566155
v 1.668595 0.826435 -0.575606
v 3.335262 0.612926 -0.402014
v 7.042678 0.572328 0.101571
v 3.335262 0.878159 0.070716
v 1.668595 1.003385 0.002337
v 0.001928 0.979450 0.050702
v -1.664738 1.003613 0.014706
v -3.331405 0.827832 0.014706
v 5.000000 0.607861 0.310986
v 5.000000 0.761101 0.002746
v 1.668595 0.165287 -1.164620
v 3.335262 0.122585 -0.978690
v 3.335262 -0.144354 -0.978690
v 1.668595 -0.173205 -1.164620
v 1.668595 0.000000 -2.475346
v -1.664738 -0.866025 0.500000
v 5.000000 0.202620 0.593916
v 3.335261 0.237636 0.916101
v 3.335261 -0.288675 0.893188
v -1.664739 -1.079291 1.211754
v 1.668595 0.275478 1.062448
v 5.000000 -0.168734 0.593916
v 0.001928 0.275478 1.188436
v -3.331405 -0.585622 0.354446
v -1.664739 0.275478 1.001554
v -3.331405 -0.195208 0.632654
v -3.331405 0.172233 0.632654
v 1.668595 -0.288675 1.062448
v -1.961841 -1.091199 0.762614
v 0.001928 -0.288675 1.188436
v -1.961841 -1.091199 0.762614
v -1.664739 -0.288675 1.001554
v -1.664739 -1.079291 1.211754
v -1.664739 1.047115 1.192065
v -2.263541 0.964853 0.732350
v 3.335261 0.018310 1.400200
v 3.335261 -0.114733 1.377287
v 5.170278 0.005587 1.400200
v 5.170278 -0.083713 1.377287
v 4.167631 -0.718229 -0.399028
v 4.167631 -0.000000 0.943296
v 4.167631 -0.686113 0.344064
v 4.167631 -0.823355 0.019293
v 4.167631 0.611711 -0.399028
v 4.167631 0.819630 0.036731
v 4.167631 0.660384 0.378433
v 4.167631 0.220128 0.755008
v 4.167631 -0.228704 0.743552
v 2.501928 -0.288675 1.141931
v 2.501928 -0.793898 -0.488810
v 2.543505 0.000000 -1.217366
v 2.501928 -1.017032 0.036526
v 2.501928 0.769671 0.496567
v 2.501928 0.940772 0.036526
v 2.501928 0.719680 -0.488810
v 2.501928 0.143936 -1.071655
v 2.501928 -0.158780 -1.071655
v 2.501928 0.256557 1.153388
vn -0.4128 -0.8380 -0.3568
vn 0.0902 -0.6778 -0.7297
vn -0.0321 -0.7448 -0.6665
vn -0.1501 -0.6949 -0.7032
vn 0.0701 -0.9293 -0.3625
vn 0.0957 -0.9283 -0.3593
vn -0.0175 -0.9564 -0.2916
vn 0.0095 -0.9519 -0.3063
vn -0.1392 -0.9160 -0.3762
vn -0.1577 -0.8704 0.4664
vn -0.0041 -0.9464 0.3230
vn -0.0000 -0.9515 0.3077
vn 0.0402 -0.9384 0.3431
vn -0.3460 -0.5445 0.7641
vn -0.9450 0.1404 0.2953
vn -0.1057 0.9632 0.2472
vn -0.3875 -0.3772 -0.8412
vn 0.0173 0.9585 -0.2844
vn 0.3730 0.5961 -0.7110
vn 0.0182 -0.9590 0.2828
vn 0.1923 -0.8883 0.4170
vn -0.9420 0.1680 -0.2904
vn -0.9483 -0.1233 -0.2924
vn -0.9470 -0.1232 0.2965
vn 0.0424 0.9674 0.2497
vn 0.0611 0.8938 0.4443
vn 0.3956 -0.5258 -0.7530
vn 0.1030 0.9305 -0.3514
vn -0.3739 -0.7591 0.5329
vn -0.0766 -0.9676 0.2404
vn -0.3768 0.4305 -0.8202
vn 0.0232 0.8867 -0.4618
vn 0.0856 0.9077 0.4109
vn -0.0614 -0.7223 -0.6888
vn 0.1010 -0.5839 -0.8055
vn 0.1283 0.6734 0.7281
vn 0.0174 0.7403 0.6721
vn -0.0689 0.6908 0.7197
vn -0.3335 0.5923 0.7334
vn -0.4238 -0.5770 -0.6982
vn -0.4020 0.6349 -0.6598
vn -0.3925 0.7891 -0.4725
vn -0.3444 0.6924 0.6341
vn -0.1460 0.8513 0.5039
vn -0.1298 0.8968 -0.4229
vn -0.0080 0.9553 0.2956
vn 0.0707 0.9426 0.3264
vn 0.1194 0.9339 -0.3369
vn -0.0044 -0.9597 -0.2811
vn -0.0115 0.9639 -0.2662
vn 0.0044 0.9600 -0.2801
vn -0.0313 0.7601 -0.6491
vn -0.1580 0.7245 -0.6709
vn -0.4271 0.8662 0.2595
vn 0.1749 -0.6524 0.7374
vn 0.0706 -0.7174 0.6930
vn -0.0704 -0.6738 0.7356
vn 0.1131 -0.6867 -0.7181
vn 0.1285 0.7300 -0.6712
vn 0.0905 0.7039 -0.7045
vn 0.0944 0.6453 -0.7581
vn -0.0694 0.9897 -0.1248
vn -0.0727 -0.9888 -0.1307
vn 0.8683 0.4921 -0.0621
vn 0.8779 -0.4748 -0.0627
vn 0.0411 0.7255 -0.6870
vn 0.0421 -0.7092 -0.7037
vn -0.1940 0.6442 0.7398
vn 0.0598 -0.6789 0.7318
vn 0.0585 0.6959 0.7158
vn -0.2079 0.6424 0.7377
vn -0.0884 -0.6728 0.7345
vn -0.0865 0.6899 0.7187
vn 0.0867 0.7395 -0.6675
vn -0.2112 -0.6133 0.7611
vn 0.1587 0.6418 0.7503
vn -0.1872 -0.6163 0.7649
vn 0.0453 0.6964 0.7163
vn 0.1145 -0.6573 -0.7449
vn 0.1798 -0.6471 0.7409
vn -1.0000 -0.0000 -0.0000
vn 0.0464 -0.6794 0.7323
vn -0.4066 -0.8657 0.2919
vn 0.1349 0.9492 0.2844
vn 0.1488 -0.9421 0.3004
vn 0.1018 0.9478 -0.3022
vn -0.4793 0.7250 0.4946
vn -0.0818 0.7492 -0.6572
vn 0.0700 0.9253 0.3726
vn 0.1300 0.6819 -0.7198
vn 0.0063 0.9109 0.4127
vn 0.0159 -0.9410 0.3381
vn 0.1833 -0.6404 0.7459
vn 0.1783 0.6052 0.7759
vn 0.1744 -0.6414 0.7471
vn 0.1329 0.6096 0.7815
vn 0.0862 0.8979 0.4317
vn 0.0256 0.9185 -0.3946
vn 0.1945 -0.9191 0.3428
vn 0.0834 -0.9922 -0.0925
vn -0.4027 -0.2275 0.8866
vn 0.2459 0.7985 -0.5494
vn 0.2630 -0.6316 -0.7293
vn 0.1004 -0.9363 0.3364
vn 0.1465 0.7437 0.6522
vn 0.1222 0.8922 -0.4347
vn 0.0010 -0.2019 0.9794
vn 0.0398 -0.9459 0.3220
vn 0.0982 -0.9019 -0.4207
vn 0.0885 -0.6947 -0.7138
vn 0.1369 0.9023 0.4088
vn -0.2793 -0.0486 0.9590
vn -0.0641 0.6816 0.7289
vn -0.0710 -0.6641 0.7442
vn 0.2022 -0.0206 0.9791
vt 0.376067 0.623061
vt 0.469658 0.705905
vt 0.348045 0.703592
vt 0.018509 0.818447
vt 0.000000 0.805891
vt 0.000000 0.772308
vt 0.017307 0.786717
vt 0.157233 0.207609
vt 0.106349 0.197809
vt 0.150939 0.103990
vt 0.203404 0.109944
vt 0.317774 0.678261
vt 0.365080 0.822022
vt 0.317774 0.874627
vt 0.264400 0.283266
vt 0.242110 0.335696
vt 0.217072 0.327515
vt 0.241032 0.273340
vt 0.195907 0.311323
vt 0.174742 0.295131
vt 0.204954 0.225100
vt 0.222993 0.249220
vt 0.124420 0.284695
vt 0.079662 0.259271
vt 0.030029 0.250570
vt 0.056562 0.189747
vt 0.050569 0.333454
vt 0.008709 0.306442
vt 0.090383 0.370174
vt 0.142321 0.377410
vt 0.170662 0.375260
vt 0.437818 0.609194
vt 0.510406 0.617841
vt 0.546700 0.622165
vt 0.639887 -0.000000
vt 0.723214 0.306599
vt 0.634655 0.335476
vt 0.935670 0.328049
vt 0.873638 0.061315
vt 0.935670 0.000000
vt 0.796945 0.614134
vt 0.876676 0.703038
vt 0.796945 0.882433
vt 0.935670 0.289036
vt 0.935670 -0.000000
vt 1.000000 0.029907
vt 0.796945 0.925884
vt 0.634655 0.664225
vt 0.696049 0.687472
vt 0.726746 0.699095
vt 0.246258 0.397652
vt 0.267149 0.343876
vt 0.287767 0.293193
vt 0.317774 0.383602
vt 0.222631 0.385381
vt 0.807845 0.614134
vt 0.807845 0.283255
vt 0.382963 0.259688
vt 0.317774 0.565459
vt 0.317774 0.234521
vt 0.380558 0.208359
vt 0.750146 0.670775
vt 0.796945 0.614134
vt 0.373152 0.155663
vt 0.807845 0.000000
vt 0.873638 0.067156
vt 0.807845 0.331110
vt 0.981596 0.696238
vt 0.398323 0.153458
vt 0.423494 0.151253
vt 0.433341 0.210311
vt 0.406949 0.209335
vt 0.436529 0.271949
vt 0.409746 0.265819
vt 0.000000 0.000000
vt 0.046629 0.950512
vt 0.037017 0.831004
vt 0.034615 0.801126
vt 0.093570 0.849071
vt 0.061392 0.962355
vt 0.054010 0.956433
vt 0.409569 0.338472
vt 0.437225 0.359744
vt 0.463703 0.368035
vt 0.463160 0.275448
vt 0.489792 0.278947
vt 0.490181 0.376326
vt 0.544199 0.410516
vt 0.541429 0.288008
vt 0.590041 0.265120
vt 0.590241 0.360494
vt 0.551882 0.655515
vt 0.562247 0.722216
vt 0.474986 0.818896
vt 0.562540 0.792440
vt 0.634655 0.252459
vt 0.585466 0.186826
vt 0.633755 0.190294
vt 0.576119 0.118137
vt 0.622795 0.126756
vt 0.535216 0.196507
vt 0.458862 0.201105
vt 0.484384 0.191898
vt 0.448827 0.132579
vt 0.474160 0.113905
vt 0.125506 0.446859
vt 0.073568 0.439623
vt 0.104490 0.367010
vt 0.154144 0.380205
vt 0.524745 0.111854
vt 0.500900 0.000000
vt 0.552669 0.010450
vt 0.508816 0.851791
vt 0.195803 0.458339
vt 0.164482 0.466799
vt 0.199004 0.373109
vt 0.136165 0.468892
vt 0.107847 0.470985
vt 0.046373 0.486939
vt 0.016856 0.425178
vt 0.023314 0.945367
vt 0.167503 0.765209
vt 0.173776 0.791646
vt 0.062447 0.799230
vt 0.047346 0.782416
vt 0.032246 0.765601
vt 0.180705 0.798134
vt 0.187634 0.804622
vt 0.161230 0.738773
vt 0.000000 0.940222
vt 0.600547 0.625923
vt 0.611325 0.738989
vt 0.374358 0.409147
vt 0.490376 0.425016
vt 0.024368 0.545322
vt 0.368753 0.432297
vt 0.545584 0.471770
vt 0.595159 0.569390
vt -0.000000 0.471040
vt 0.590340 0.408182
vt 0.536866 0.568079
vt 0.420282 0.565459
vt 0.182389 0.494818
vt 0.217556 0.475991
vt 0.227123 0.449878
vt 0.381388 0.345958
vt 0.381913 0.317201
vt 0.409480 0.374799
s 0
usemtl Material.004
f 30/1/1 25/2/1 14/3/1
f 101/4/2 58/5/2 22/6/2 95/7/2
f 16/8/3 15/9/3 20/10/3 21/11/3
f 15/12/4 14/3/4 19/13/4 20/14/4
f 84/15/5 87/16/5 26/17/5 18/18/5
f 96/19/6 27/20/6 17/21/6 94/22/6
f 27/20/7 28/23/7 16/8/7 17/21/7
f 28/23/8 29/24/8 15/9/8 16/8/8
f 29/24/9 30/25/9 14/26/9 15/9/9
f 10/27/10 9/28/10 30/25/10 29/24/10
f 11/29/11 10/27/11 29/24/11 28/23/11
f 12/30/12 11/29/12 28/23/12 27/20/12
f 4/31/13 12/30/13 27/20/13 96/19/13
f 25/2/14 9/32/14 70/33/14 8/34/14
f 33/35/15 24/36/15 35/37/15
f 34/38/16 2/39/16 35/40/16
f 2/41/17 3/42/17 34/43/17
f 33/44/18 35/45/18 31/46/18
f 33/47/19 31/48/19 66/49/19 1/50/19
f 31/51/20 32/52/20 2/53/20 35/54/20
f 86/55/21 87/16/21 32/52/21 31/51/21
f 34/56/22 35/37/22 24/36/22
f 34/56/23 24/36/23 47/57/23
f 24/36/24 33/35/24 47/57/24
f 53/58/25 33/59/25 47/60/25
f 53/58/26 47/60/26 54/61/26
f 33/47/27 1/50/27 61/62/27 53/63/27
f 54/61/28 47/60/28 36/64/28
f 9/32/29 25/2/29 30/1/29
f 47/65/30 36/66/30 34/67/30
f 34/43/31 3/42/31 36/68/31
f 88/69/32 46/70/32 48/71/32 89/72/32
f 89/72/33 48/71/33 41/73/33 90/74/33
f 75/75/34 68/75/34 60/75/34
f 18/76/35 57/77/35 23/78/35 3/79/35 2/80/35 84/81/35
f 91/82/36 90/74/36 41/73/36 62/83/36
f 102/84/37 97/85/37 40/86/37 65/87/37
f 67/88/38 39/89/38 38/90/38 69/91/38
f 8/34/39 71/92/39 37/93/39 25/2/39
f 19/13/40 14/3/40 25/2/40
f 25/2/41 42/94/41 19/13/41
f 42/94/42 25/2/42 52/95/42
f 52/95/43 25/2/43 37/93/43
f 37/96/44 38/90/44 51/97/44 52/98/44
f 52/98/45 51/97/45 43/99/45 42/100/45
f 38/90/46 39/89/46 50/101/46 51/97/46
f 97/85/47 98/102/47 49/103/47 40/86/47
f 98/102/48 99/104/48 45/105/48 49/103/48
f 40/106/49 39/107/49 50/108/49 49/109/49
f 49/103/50 45/105/50 44/110/50 50/101/50
f 51/97/51 50/101/51 44/110/51 43/99/51
f 21/111/52 20/112/52 43/99/52 44/110/52
f 19/13/53 42/94/53 43/113/53 20/14/53
f 60/27/54 75/75/54 77/75/54
f 92/114/55 63/115/55 13/116/55 86/55/55
f 63/115/56 93/117/56 72/118/56 12/30/56 4/31/56 13/116/56
f 74/119/57 76/120/57 10/27/57 11/29/57
f 94/121/58 101/4/58 57/77/58 18/76/58
f 99/122/59 46/123/59 56/124/59 100/125/59
f 95/7/60 22/6/60 55/126/60 100/125/60
f 56/124/61 46/123/61 88/127/61 36/128/61 3/79/61 23/78/61
f 55/75/62 59/75/62 21/75/62
f 59/75/63 58/75/63 21/75/63
f 55/75/64 22/6/64 59/75/64
f 22/6/65 58/75/65 59/75/65
f 45/129/66 55/126/66 21/75/66 44/110/66
f 17/130/67 16/8/67 21/75/67 58/5/67
f 69/131/68 38/132/68 37/93/68 71/92/68
f 74/119/69 72/133/69 5/134/69 6/135/69
f 5/134/70 65/136/70 67/88/70 6/137/70
f 7/138/71 69/131/71 71/92/71 8/34/71
f 6/135/72 7/139/72 76/120/72 74/119/72
f 6/137/73 67/88/73 69/91/73 7/140/73
f 23/78/74 95/7/74 100/125/74 56/124/74
f 7/138/75 8/34/75 70/33/75 76/141/75
f 62/83/76 85/75/76 91/82/76
f 76/141/77 70/33/77 9/32/77 10/142/77
f 65/136/78 40/106/78 39/89/78 67/88/78
f 17/130/79 58/5/79 101/4/79 94/121/79
f 92/114/80 85/143/80 63/115/80
f 77/75/81 75/75/81 73/75/81 64/75/81
f 11/29/82 12/30/82 72/133/82 74/119/82
f 77/75/83 68/75/83 75/75/83
f 68/75/84 77/75/84 60/75/84
f 78/75/85 37/75/85 38/75/85
f 79/75/86 78/75/86 38/75/86
f 79/75/87 37/96/87 78/75/87
f 38/90/88 37/96/88 79/75/88
f 41/73/89 48/71/89 98/102/89 97/85/89
f 45/129/90 99/122/90 100/125/90 55/126/90
f 80/83/91 82/83/91 62/83/91
f 81/115/92 63/115/92 83/115/92
f 1/144/93 85/143/93 92/114/93 66/145/93
f 1/146/94 61/147/94 91/82/94 85/148/94
f 66/145/95 92/114/95 86/55/95 31/51/95
f 61/147/96 53/58/96 90/74/96 91/82/96
f 54/61/97 89/72/97 90/74/97 53/58/97
f 36/64/98 88/69/98 89/72/98 54/61/98
f 13/116/99 26/17/99 87/16/99 86/55/99
f 2/53/100 32/52/100 87/16/100 84/15/100
f 85/75/101 83/75/101 82/75/101
f 82/75/102 85/75/102 62/83/102
f 83/75/103 63/115/103 85/75/103
f 63/115/104 81/115/104 93/117/104
f 62/83/105 41/73/105 97/85/105 102/84/105
f 48/71/106 46/70/106 99/104/106 98/102/106
f 80/75/107 81/75/107 83/115/107 82/75/107
f 13/116/108 4/31/108 96/19/108 26/17/108
f 26/17/109 96/19/109 94/22/109 18/18/109
f 57/77/110 101/4/110 95/7/110 23/78/110
f 80/83/111 62/83/111 102/84/111
f 93/117/112 81/75/112 80/83/112 102/84/112
f 65/87/113 5/134/113 102/84/113
f 72/118/114 93/117/114 5/134/114
f 93/117/115 102/84/115 5/134/115
l 32 35
l 2 36
l 9 37
l 10 38
l 11 39
l 12 40
l 13 41
l 14 42
l 15 43
l 16 44
l 17 45
l 18 46
l 26 48
l 27 49
l 28 50
l 29 51
l 30 52
l 31 53
l 32 54
