# Blender 4.4.1
# www.blender.org
mtllib fish.mtl
o Cylinder
v 5.000000 -0.000000 0.735381
v 5.000000 -0.714687 -0.396042
v 5.000000 0.000000 -0.716479
v 2.501928 -0.866025 0.462197
v 1.668595 -0.000000 1.320045
v 0.001928 -0.000000 1.466499
v -1.664739 -0.000000 1.252331
v -3.331405 -0.000000 0.771758
v -3.331405 -0.585622 0.354446
v -1.664738 -0.866025 0.500000
v 0.001928 -0.866025 0.632310
v 1.668595 -0.866025 0.547254
v 3.335262 -0.866025 0.377141
v -3.331405 -0.604979 -0.500000
v -1.664738 -0.866025 -0.500000
v 0.001928 -0.866025 -0.566155
v 1.668595 -0.866025 -0.575606
v 3.335262 -0.721771 -0.402014
v -3.331405 0.000000 -1.000000
v -1.664738 0.000000 -1.453634
v 0.001928 0.000000 -1.548141
v 1.751749 0.000000 -1.311873
v 3.335262 0.000000 -1.122859
v -5.000000 -0.002156 0.014706
v 3.335262 -0.964206 0.070715
v 1.668595 -1.069857 0.002337
v 0.001928 -1.026554 0.050702
v -1.664738 -1.069629 0.014706
v -3.331405 -0.824151 0.014706
v 5.000000 -0.506201 0.310986
v 5.000000 -0.682504 -0.032130
v 7.770956 0.001256 2.190176
v 7.761507 -0.003500 -1.987034
v 7.017789 -0.613503 0.072306
v 5.000000 0.610496 -0.396042
v -3.331405 0.516701 0.354446
v -1.664738 0.826434 0.500000
v 0.001928 0.826434 0.632310
v 1.668595 0.826434 0.547254
v 3.335262 0.712908 0.445880
v -3.331405 0.519597 -0.500000
v -1.664738 0.826435 -0.500000
v 0.001928 0.826435 -0.566155
v 1.668595 0.826435 -0.575606
v 3.335262 0.612926 -0.402014
v 7.042678 0.572328 0.101571
v 3.335262 0.878159 0.070716
v 1.668595 1.003385 0.002337
v 0.001928 0.979450 0.050702
v -1.664738 1.003613 0.014706
v -3.331405 0.827832 0.014706
v 5.000000 0.607861 0.310986
v 5.000000 0.761101 0.002746
v 1.668595 0.165287 -1.164620
v 1.668595 -0.173205 -1.164620
v 1.668595 0.000000 -2.475346
v -1.664738 -0.866025 0.500000
v 5.000000 0.202620 0.593916
v 3.335261 0.237636 0.916101
v 3.335261 -0.288675 0.893188
v -1.664739 -1.079291 1.211754
v 1.668595 0.275478 1.062448
v 5.000000 -0.168734 0.593916
v 0.001928 0.275478 1.188436
v -3.331405 -0.585622 0.354446
v -1.664739 0.275478 1.001554
v -3.331405 -0.195208 0.632654
v -3.331405 0.172233 0.632654
v 1.668595 -0.288675 1.062448
v -1.961841 -1.091199 0.762614
v 0.001928 -0.288675 1.188436
v -1.961841 -1.091199 0.762614
v -1.664739 -0.288675 1.001554
v -1.664739 -1.079291 1.211754
v -1.664739 1.047115 1.192065
v -2.263541 0.964853 0.732350
v 3.335261 0.018310 1.400200
v 3.335261 -0.114733 1.377287
v 5.170278 0.005587 1.400200
v 5.170278 -0.083713 1.377287
v 4.167631 -0.000000 0.943296
v 4.167631 -0.686113 0.344064
v 4.167631 0.819630 0.036731
v 4.167631 0.660384 0.378433
v 4.167631 0.220128 0.755008
v 4.167631 -0.228704 0.743552
v 2.501928 -0.288675 1.141931
v 2.501928 -0.793898 -0.488810
v 2.543505 0.000000 -1.217366
v 2.501928 -1.017032 0.036526
v 2.501928 0.769671 0.496567
v 2.501928 0.940772 0.036526
v 2.501928 0.719680 -0.488810
v 2.501928 0.256557 1.153388
vn -0.4128 -0.8380 -0.3568
vn 0.0862 0.6865 -0.7220
vn -0.0321 -0.7448 -0.6665
vn -0.1501 -0.6949 -0.7032
vn 0.0768 -0.9670 -0.2430
vn 0.0957 -0.9283 -0.3593
vn -0.0175 -0.9564 -0.2916
vn 0.0095 -0.9519 -0.3063
vn -0.1392 -0.9160 -0.3762
vn -0.1577 -0.8704 0.4664
vn -0.0041 -0.9464 0.3230
vn -0.0000 -0.9515 0.3077
vn 0.0402 -0.9384 0.3431
vn -0.3460 -0.5445 0.7641
vn -0.3875 -0.3772 -0.8412
vn 0.0611 0.8938 0.4443
vn 0.2059 -0.8704 0.4472
vn -0.9432 0.0116 0.3321
vn -0.9428 0.0280 -0.3322
vn 0.1030 0.9305 -0.3514
vn -0.3739 -0.7591 0.5329
vn -0.3768 0.4305 -0.8202
vn 0.0029 0.9025 -0.4306
vn 0.0856 0.9077 0.4109
vn -0.0614 -0.7223 -0.6888
vn 0.1283 0.6734 0.7281
vn 0.0174 0.7403 0.6721
vn -0.0689 0.6908 0.7197
vn -0.3335 0.5923 0.7334
vn -0.4238 -0.5770 -0.6982
vn -0.4020 0.6349 -0.6598
vn -0.3925 0.7891 -0.4725
vn -0.3444 0.6924 0.6341
vn -0.1460 0.8513 0.5039
vn -0.1298 0.8968 -0.4229
vn -0.0080 0.9553 0.2956
vn 0.0707 0.9426 0.3264
vn 0.1194 0.9339 -0.3369
vn 0.0044 0.9597 0.2811
vn -0.0115 0.9639 -0.2662
vn 0.0044 0.9600 -0.2801
vn -0.0313 0.7601 -0.6491
vn -0.1580 0.7245 -0.6709
vn -0.4271 0.8662 0.2595
vn 0.1749 -0.6524 0.7374
vn 0.0706 -0.7174 0.6930
vn -0.0704 -0.6738 0.7356
vn 0.1237 0.6870 -0.7161
vn -0.0694 0.9897 -0.1248
vn -0.0727 -0.9888 -0.1307
vn 0.8683 0.4921 -0.0621
vn 0.8779 -0.4748 -0.0627
vn 0.0411 0.7255 -0.6870
vn 0.0421 -0.7092 -0.7037
vn -0.1940 0.6442 0.7398
vn 0.0598 -0.6789 0.7318
vn 0.0585 0.6959 0.7158
vn -0.2079 0.6424 0.7377
vn -0.0884 -0.6728 0.7345
vn -0.0865 0.6899 0.7187
vn -0.2112 -0.6133 0.7611
vn 0.1587 0.6418 0.7503
vn -0.1872 -0.6163 0.7649
vn 0.0453 0.6964 0.7163
vn 0.0880 -0.6694 -0.7377
vn 0.1798 -0.6471 0.7409
vn -1.0000 -0.0000 -0.0000
vn 0.0464 -0.6794 0.7323
vn -0.4066 -0.8657 0.2919
vn 0.1349 0.9492 0.2844
vn 0.1488 -0.9421 0.3004
vn 0.1018 0.9478 -0.3022
vn -0.4793 0.7250 0.4946
vn -0.0818 0.7492 -0.6572
vn 0.0700 0.9253 0.3726
vn 0.0063 0.9109 0.4127
vn 0.0159 -0.9410 0.3381
vn 0.1833 -0.6404 0.7459
vn 0.1783 0.6052 0.7759
vn 0.1744 -0.6414 0.7471
vn 0.1329 0.6096 0.7815
vn 0.0862 0.8979 0.4317
vn 0.0413 0.8714 -0.4889
vn 0.2130 -0.9305 0.2981
vn 0.1771 -0.9066 0.3831
vn -0.4027 -0.2275 0.8866
vn 0.2459 0.7985 -0.5494
vn 0.2630 -0.6316 -0.7293
vn 0.1004 -0.9363 0.3364
vn 0.1465 0.7437 0.6522
vn 0.1222 0.8922 -0.4347
vn 0.0010 -0.2019 0.9794
vn 0.0398 -0.9459 0.3220
vn 0.0982 -0.9019 -0.4207
vn 0.1369 0.9023 0.4088
vn -0.2793 -0.0486 0.9590
vn -0.0641 0.6816 0.7289
vn -0.0710 -0.6641 0.7442
vn 0.2022 -0.0206 0.9791
vn 0.1097 -0.6610 -0.7424
vn 0.1105 -0.6885 -0.7168
vn 0.1010 -0.5839 -0.8055
vn 0.1228 0.7323 -0.6698
vn 0.0944 0.6453 -0.7581
vn 0.0513 0.9343 -0.3528
vn 0.0295 -0.9957 0.0881
vn 0.0068 -0.8894 0.4570
vn 0.0564 -0.6414 0.7651
vn 0.0936 0.5699 0.8163
vn 0.1009 -0.9502 -0.2950
vn -0.0766 -0.9676 0.2404
vn 0.1057 -0.9632 -0.2472
vn 0.1252 0.9400 -0.3174
vn -0.3956 0.5258 0.7530
vn -0.3730 -0.5961 0.7110
vt 0.376067 0.623061
vt 0.469658 0.705905
vt 0.348045 0.703592
vt 0.000000 0.000000
vt 0.000000 0.772308
vt 0.157233 0.207609
vt 0.106349 0.197809
vt 0.150939 0.103990
vt 0.203404 0.109944
vt 0.317774 0.678261
vt 0.365080 0.822022
vt 0.317774 0.874627
vt 0.241032 0.273340
vt 0.796945 0.614134
vt 0.267149 0.343876
vt 0.217072 0.327515
vt 0.195907 0.311323
vt 0.174742 0.295131
vt 0.204954 0.225100
vt 0.222993 0.249220
vt 0.124420 0.284695
vt 0.079662 0.259271
vt 0.030029 0.250570
vt 0.056562 0.189747
vt 0.050569 0.333454
vt 0.008709 0.306442
vt 0.090383 0.370174
vt 0.142321 0.377410
vt 0.170662 0.375260
vt 0.437818 0.609194
vt 0.510406 0.617841
vt 0.546700 0.622165
vt 0.876676 0.703038
vt 0.796945 0.882433
vt 0.382963 0.259688
vt 0.380558 0.208359
vt 0.246258 0.397652
vt 0.222631 0.385381
vt 0.317774 0.565459
vt 0.317774 0.234521
vt 0.935670 -0.000000
vt 0.807845 0.331110
vt 0.373152 0.155663
vt 0.093570 0.849071
vt 0.423494 0.151253
vt 0.406949 0.209335
vt 0.433341 0.210311
vt 0.436529 0.271949
vt 0.409746 0.265819
vt 0.409569 0.338472
vt 0.437225 0.359744
vt 0.463703 0.368035
vt 0.463160 0.275448
vt 0.489792 0.278947
vt 0.490181 0.376326
vt 0.544199 0.410516
vt 0.541429 0.288008
vt 0.590041 0.265120
vt 0.590241 0.360494
vt 0.551882 0.655515
vt 0.562247 0.722216
vt 0.474986 0.818896
vt 0.562540 0.792440
vt 0.634655 0.252459
vt 0.585466 0.186826
vt 0.633755 0.190294
vt 0.576119 0.118137
vt 0.622795 0.126756
vt 0.535216 0.196507
vt 0.458862 0.201105
vt 0.484384 0.191898
vt 0.448827 0.132579
vt 0.474160 0.113905
vt 0.524745 0.111854
vt 0.500900 0.000000
vt 0.552669 0.010450
vt 0.508816 0.851791
vt 0.195803 0.458339
vt 0.164482 0.466799
vt 0.199004 0.373109
vt 0.136165 0.468892
vt 0.107847 0.470985
vt 0.046373 0.486939
vt 0.016856 0.425178
vt 0.161230 0.738773
vt 0.032246 0.765601
vt 0.000000 0.940222
vt 0.000000 0.805891
vt 0.600547 0.625923
vt 0.611325 0.738989
vt 0.374358 0.409147
vt 0.490376 0.425016
vt 0.024368 0.545322
vt 0.368753 0.432297
vt 0.545584 0.471770
vt 0.595159 0.569390
vt -0.000000 0.471040
vt 0.590340 0.408182
vt 0.536866 0.568079
vt 0.420282 0.565459
vt 0.125506 0.446859
vt 0.182389 0.494818
vt 0.217556 0.475991
vt 0.227123 0.449878
vt 0.381388 0.345958
vt 0.381913 0.317201
vt 0.409480 0.374799
s 0
usemtl Material.004
f 29/1/1 24/2/1 14/3/1
f 54/4/2 89/4/2 22/5/2
f 16/6/3 15/7/3 20/8/3 21/9/3
f 15/10/4 14/3/4 19/11/4 20/12/4
f 18/13/5 2/14/5 31/15/5 25/16/5
f 90/17/6 26/18/6 17/19/6 88/20/6
f 26/18/7 27/21/7 16/6/7 17/19/7
f 27/21/8 28/22/8 15/7/8 16/6/8
f 28/22/9 29/23/9 14/24/9 15/7/9
f 10/25/10 9/26/10 29/23/10 28/22/10
f 11/27/11 10/25/11 28/22/11 27/21/11
f 12/28/12 11/27/12 27/21/12 26/18/12
f 4/29/13 12/28/13 26/18/13 90/17/13
f 24/2/14 9/30/14 67/31/14 8/32/14
f 2/14/15 3/33/15 33/34/15
f 52/35/16 46/4/16 53/36/16
f 30/37/17 82/38/17 31/15/17
f 32/39/18 46/40/18 34/41/18
f 34/41/19 46/40/19 33/42/19
f 46/4/20 35/43/20 53/36/20
f 9/30/21 24/2/21 29/1/21
f 33/42/22 3/44/22 35/43/22
f 35/43/23 45/45/23 83/46/23
f 83/46/24 47/47/24 40/48/24 84/49/24
f 72/4/25 65/4/25 57/4/25
f 85/50/26 84/49/26 40/48/26 59/51/26
f 94/52/27 91/53/27 39/54/27 62/55/27
f 64/56/28 38/57/28 37/58/28 66/59/28
f 8/32/29 68/60/29 36/61/29 24/2/29
f 19/11/30 14/3/30 24/2/30
f 24/2/31 41/62/31 19/11/31
f 41/62/32 24/2/32 51/63/32
f 51/63/33 24/2/33 36/61/33
f 36/64/34 37/58/34 50/65/34 51/66/34
f 51/66/35 50/65/35 42/67/35 41/68/35
f 37/58/36 38/57/36 49/69/36 50/65/36
f 91/53/37 92/70/37 48/71/37 39/54/37
f 92/70/38 93/72/38 44/73/38 48/71/38
f 39/54/39 48/71/39 49/69/39 38/57/39
f 48/71/40 44/73/40 43/74/40 49/69/40
f 50/65/41 49/69/41 43/74/41 42/67/41
f 21/75/42 20/76/42 42/67/42 43/74/42
f 19/11/43 41/62/43 42/77/43 20/12/43
f 57/25/44 72/4/44 74/4/44
f 86/78/45 60/79/45 13/80/45 82/38/45
f 60/79/46 87/81/46 69/82/46 12/28/46 4/29/46 13/80/46
f 71/83/47 73/84/47 10/25/47 11/27/47
f 54/4/48 44/73/48 93/72/48 89/4/48
f 54/4/49 56/4/49 21/4/49
f 56/4/50 55/4/50 21/4/50
f 54/4/51 22/5/51 56/4/51
f 22/5/52 55/4/52 56/4/52
f 44/85/53 54/86/53 21/4/53 43/74/53
f 17/87/54 16/6/54 21/4/54 55/88/54
f 66/89/55 37/90/55 36/61/55 68/60/55
f 71/83/56 69/91/56 5/92/56 6/93/56
f 5/92/57 62/94/57 64/56/57 6/95/57
f 7/96/58 66/89/58 68/60/58 8/32/58
f 6/93/59 7/97/59 73/84/59 71/83/59
f 6/95/60 64/56/60 66/59/60 7/98/60
f 7/96/61 8/32/61 67/31/61 73/99/61
f 59/51/62 81/4/62 85/50/62
f 73/99/63 67/31/63 9/30/63 10/100/63
f 62/94/64 39/101/64 38/57/64 64/56/64
f 22/5/65 89/4/65 55/4/65
f 86/78/66 81/102/66 60/79/66
f 74/4/67 72/4/67 70/4/67 61/4/67
f 11/27/68 12/28/68 69/91/68 71/83/68
f 74/4/69 65/4/69 72/4/69
f 65/4/70 74/4/70 57/4/70
f 75/4/71 36/4/71 37/4/71
f 76/4/72 75/4/72 37/4/72
f 76/4/73 36/64/73 75/4/73
f 37/58/74 36/64/74 76/4/74
f 40/48/75 47/47/75 92/70/75 91/53/75
f 77/51/76 79/51/76 59/51/76
f 78/79/77 60/79/77 80/79/77
f 1/103/78 81/102/78 86/78/78 63/104/78
f 1/105/79 58/106/79 85/50/79 81/107/79
f 63/104/80 86/78/80 82/38/80 30/37/80
f 58/106/81 52/35/81 84/49/81 85/50/81
f 53/36/82 83/46/82 84/49/82 52/35/82
f 47/47/83 83/46/83 45/45/83
f 25/16/84 82/38/84 13/80/84
f 31/15/85 82/38/85 25/16/85
f 81/4/86 80/4/86 79/4/86
f 79/4/87 81/4/87 59/51/87
f 80/4/88 60/79/88 81/4/88
f 60/79/89 78/79/89 87/81/89
f 59/51/90 40/48/90 91/53/90 94/52/90
f 47/47/91 45/45/91 93/72/91 92/70/91
f 77/4/92 78/4/92 80/79/92 79/4/92
f 13/80/93 4/29/93 90/17/93 25/16/93
f 25/16/94 90/17/94 88/20/94 18/13/94
f 77/51/95 59/51/95 94/52/95
f 87/81/96 78/4/96 77/51/96 94/52/96
f 62/55/97 5/92/97 94/52/97
f 69/82/98 87/81/98 5/92/98
f 87/81/99 94/52/99 5/92/99
f 88/20/100 17/87/100 55/4/100 89/4/100
f 18/13/101 88/20/101 89/4/101 23/4/101
f 23/4/102 3/33/102 2/14/102 18/13/102
f 23/4/103 89/4/103 93/72/103 45/45/103
f 3/44/104 23/4/104 45/45/104 35/43/104
f 53/36/105 35/43/105 83/46/105
f 2/14/106 34/4/106 31/15/106
f 30/37/107 31/15/107 34/4/107
f 30/37/108 34/4/108 63/104/108
f 52/35/109 58/106/109 46/4/109
f 46/4/110 32/39/110 58/106/110
f 46/4/111 35/43/111 33/42/111
f 33/42/112 34/41/112 2/14/112
f 34/4/113 63/104/113 32/39/113
f 58/106/114 1/105/114 32/39/114
f 63/104/115 32/39/115 1/105/115
